 <svg id="visual" viewBox="0 0 900 150" width="900" height="150" xmlns="http://www.w3.org/2000/svg" xmlns:xlink="http://www.w3.org/1999/xlink" version="1.1"><rect x="0" y="0" width="900" height="150" fill="#0066ff"></rect><path d="M0 74L13.7 71.3C27.3 68.7 54.7 63.3 82 58.8C109.3 54.3 136.7 50.7 163.8 48.2C191 45.7 218 44.3 245.2 42.7C272.3 41 299.7 39 327 39.2C354.3 39.3 381.7 41.7 409 42.2C436.3 42.7 463.7 41.3 491 45C518.3 48.7 545.7 57.3 573 61.7C600.3 66 627.7 66 654.8 63.2C682 60.3 709 54.7 736.2 56.3C763.3 58 790.7 67 818 69.3C845.3 71.7 872.7 67.3 886.3 65.2L900 63L900 0L886.3 0C872.7 0 845.3 0 818 0C790.7 0 763.3 0 736.2 0C709 0 682 0 654.8 0C627.7 0 600.3 0 573 0C545.7 0 518.3 0 491 0C463.7 0 436.3 0 409 0C381.7 0 354.3 0 327 0C299.7 0 272.3 0 245.2 0C218 0 191 0 163.8 0C136.7 0 109.3 0 82 0C54.7 0 27.3 0 13.7 0L0 0Z" fill="#002233" stroke-linecap="round" stroke-linejoin="miter"></path></svg>