<svg id="visual" viewBox="0 0 900 150" width="900" height="150" xmlns="http://www.w3.org/2000/svg" xmlns:xlink="http://www.w3.org/1999/xlink" version="1.1"><rect x="0" y="0" width="900" height="150" fill="#002233"></rect><path d="M0 63L37.5 60.8C75 58.7 150 54.3 225 53.2C300 52 375 54 450 60.8C525 67.7 600 79.3 675 82.8C750 86.3 825 81.7 862.5 79.3L900 77L900 0L862.5 0C825 0 750 0 675 0C600 0 525 0 450 0C375 0 300 0 225 0C150 0 75 0 37.5 0L0 0Z" fill="#0066FF" stroke-linecap="round" stroke-linejoin="miter"></path></svg>